<svg xmlns="http://www.w3.org/2000/svg" width="27.164" height="36.219" viewBox="0 0 27.164 36.219">
  <path id="child-solid" d="M8.489,5.093a5.093,5.093,0,1,1,5.093,5.093A5.093,5.093,0,0,1,8.489,5.093Zm18.012.1a2.264,2.264,0,0,0-3.2,0l-6.128,6.128H9.993L3.865,5.19a2.264,2.264,0,1,0-3.2,3.2l6.694,6.694v18.87a2.264,2.264,0,0,0,2.264,2.264h1.132a2.264,2.264,0,0,0,2.264-2.264V26.032h1.132v7.923a2.264,2.264,0,0,0,2.264,2.264h1.132a2.264,2.264,0,0,0,2.264-2.264V15.086L26.5,8.392A2.264,2.264,0,0,0,26.5,5.19Z" transform="translate(0)" fill="#005075"/>
</svg>
