<svg xmlns="http://www.w3.org/2000/svg" width="33" height="32.688" viewBox="0 0 33 32.688">
  <path id="coins-solid" d="M0,25.876V28.6c0,2.254,5.543,4.086,12.375,4.086S24.75,30.856,24.75,28.6V25.876C22.088,27.734,17.222,28.6,12.375,28.6S2.662,27.734,0,25.876Zm20.625-17.7C27.457,8.172,33,6.34,33,4.086S27.457,0,20.625,0,8.25,1.832,8.25,4.086,13.793,8.172,20.625,8.172ZM0,19.179v3.294c0,2.254,5.543,4.086,12.375,4.086S24.75,24.727,24.75,22.473V19.179c-2.662,2.171-7.535,3.294-12.375,3.294S2.662,21.35,0,19.179Zm26.812.7C30.506,19.173,33,17.857,33,16.344V13.618a15.923,15.923,0,0,1-6.187,2.2ZM12.375,10.215C5.543,10.215,0,12.5,0,15.323S5.543,20.43,12.375,20.43,24.75,18.145,24.75,15.323,19.207,10.215,12.375,10.215ZM26.51,13.81c3.867-.69,6.49-2.043,6.49-3.594V7.489c-2.288,1.6-6.22,2.464-10.358,2.669A7.187,7.187,0,0,1,26.51,13.81Z" fill="#005075"/>
</svg>
