<svg id="envelope-solid" xmlns="http://www.w3.org/2000/svg" width="289.737" height="217.303" viewBox="0 0 289.737 217.303">
  <path id="envelope-solid-2" data-name="envelope-solid" d="M284.248,135.755a3.407,3.407,0,0,1,5.489,2.66V254.14A27.17,27.17,0,0,1,262.575,281.3H27.163A27.17,27.17,0,0,1,0,254.14V138.472a3.384,3.384,0,0,1,5.489-2.66c12.676,9.847,29.483,22.353,87.2,64.285,11.94,8.715,32.086,27.05,52.175,26.937,20.2.17,40.744-18.561,52.232-26.937C254.822,158.165,271.572,145.6,284.248,135.755Zm-139.38,73.113c13.129.226,32.03-16.524,41.537-23.428,75.094-54.5,80.81-59.249,98.126-72.83a13.542,13.542,0,0,0,5.206-10.7V91.163A27.17,27.17,0,0,0,262.575,64H27.163A27.17,27.17,0,0,0,0,91.163v10.752a13.624,13.624,0,0,0,5.206,10.7c17.316,13.525,23.032,18.335,98.126,72.83,9.507,6.9,28.408,23.654,41.537,23.428Z" transform="translate(0 -64)" fill="#005075"/>
</svg>
