<svg xmlns="http://www.w3.org/2000/svg" width="217.303" height="217.303" viewBox="0 0 217.303 217.303">
  <path id="phone-alt-solid" d="M211.1,153.561l-47.536-20.372a10.186,10.186,0,0,0-11.884,2.929l-21.052,25.72a157.318,157.318,0,0,1-75.2-75.2L81.15,65.582A10.161,10.161,0,0,0,84.079,53.7L63.706,6.162A10.254,10.254,0,0,0,52.035.263L7.894,10.449A10.186,10.186,0,0,0,0,20.376C0,129.241,88.238,217.309,196.933,217.309a10.186,10.186,0,0,0,9.932-7.894l10.186-44.14a10.309,10.309,0,0,0-5.946-11.714Z" transform="translate(0 -0.006)" fill="#005075"/>
</svg>
